<svg version="1.1" id="Layer_1" xmlns="http://www.w3.org/2000/svg" xmlns:xlink="http://www.w3.org/1999/xlink" x="0px" y="0px"
	 width="100%" viewBox="0 0 50 50" enable-background="new 0 0 50 50" xml:space="preserve">
<path fill="#0D0816" opacity="1.000000" stroke="none" 
	d="
M1.000000,17.004822 
	C1.000000,11.352250 1.000000,6.198471 1.000000,1.022346 
	C17.610174,1.022346 34.220383,1.022346 50.915298,1.022346 
	C50.915298,17.568289 50.915298,34.137074 50.915298,50.852936 
	C34.334286,50.852936 17.667315,50.852936 1.000000,50.852936 
	C1.000000,39.781265 1.000000,28.642439 1.000000,17.004822 
M18.935671,48.992794 
	C24.287773,48.992180 29.639875,48.991566 35.866268,48.996109 
	C45.194859,48.987366 48.785194,46.239704 48.989628,38.921875 
	C49.035454,37.281422 48.995899,35.638577 48.997471,33.060413 
	C48.997196,26.373848 48.996918,19.687281 48.990101,12.225471 
	C47.942463,5.865358 45.464146,3.579638 38.058788,3.005634 
	C30.707586,3.005748 23.356384,3.005862 15.151570,3.001478 
	C13.669059,3.042168 12.159518,2.917060 10.708925,3.153543 
	C5.645712,3.978978 2.823477,8.224931 4.013014,13.874825 
	C3.682218,19.915205 3.351423,25.955585 3.007782,32.884380 
	C3.009057,35.254154 3.010332,37.623928 3.043120,40.733845 
	C4.117798,46.196457 7.439250,48.947128 13.838358,48.990738 
	C15.225784,48.987873 16.613211,48.985012 18.935671,48.992794 
z"/>
<path fill="#0D0928" opacity="1.000000" stroke="none" 
	d="
M16.005182,3.005976 
	C23.356384,3.005862 30.707586,3.005748 38.528603,3.386824 
	C39.162235,5.495148 39.326050,7.222281 39.282280,9.184551 
	C39.200134,9.586938 39.325569,9.754188 39.466473,9.881756 
	C39.481941,9.842073 39.419041,9.784636 39.047745,9.612373 
	C38.465374,9.613045 38.254299,9.785978 38.026909,9.973735 
	C38.010597,9.988557 38.024815,9.947065 38.045959,9.512608 
	C37.380569,9.525509 36.694031,9.972869 35.857662,10.462991 
	C35.707832,10.505753 35.622803,10.805552 35.356758,10.777340 
	C33.556873,10.474493 32.023033,10.199860 30.536011,9.735228 
	C30.582830,9.545231 30.218271,9.402647 30.649939,9.309046 
	C31.087286,8.665776 31.092964,8.116109 30.844624,7.421769 
	C30.014894,7.220876 29.439190,7.164656 28.457952,7.082981 
	C26.009609,7.370409 23.966795,7.683292 21.628017,8.098778 
	C21.024300,8.462001 20.716545,8.722621 20.171944,8.846630 
	C19.291838,8.947582 18.648584,9.185145 17.569603,9.648234 
	C17.079178,10.432219 17.024475,10.990676 16.857729,11.600447 
	C16.745684,11.651760 16.642183,11.875450 16.580265,11.889860 
	C16.518347,11.904271 16.542788,12.029046 16.364960,11.656202 
	C15.650861,11.201586 15.114588,11.119812 14.578773,11.013577 
	C14.579230,10.989116 14.530382,10.986261 14.483050,10.606604 
	C14.351727,9.470342 14.267736,8.713737 14.336660,7.830357 
	C14.683261,7.520506 14.849991,7.315510 15.184280,6.930208 
	C15.586478,6.511835 15.794166,6.251845 16.001385,5.618547 
	C16.002340,4.498817 16.003761,3.752397 16.005182,3.005976 
z"/>
<path fill="#0E0921" opacity="1.000000" stroke="none" 
	d="
M48.995651,33.996834 
	C48.995899,35.638577 49.035454,37.281422 48.989628,38.921875 
	C48.785194,46.239704 45.194859,48.987366 35.431931,48.619087 
	C35.328499,46.583111 35.659401,44.924156 36.373886,43.154587 
	C41.563332,42.963120 41.563332,42.963120 42.238499,40.557068 
	C41.892067,39.851170 41.598755,39.413353 41.195068,38.646519 
	C40.734364,38.025585 40.384033,37.733669 40.127460,37.112312 
	C40.150410,35.882549 40.079601,34.982231 40.128864,33.863998 
	C40.248936,33.646084 40.378151,33.165546 40.441334,33.153698 
	C40.504517,33.141850 40.551250,33.022072 40.861568,33.274979 
	C41.437172,33.498688 41.702454,33.469494 41.975327,33.660378 
	C42.014267,34.173508 42.074787,34.460415 42.162125,35.019211 
	C42.425171,35.614124 42.690567,35.930996 42.955967,36.247868 
	C43.310551,35.831470 43.665138,35.415073 44.377182,34.932762 
	C46.154976,34.576839 47.575314,34.286839 48.995651,33.996834 
M36.501995,46.471291 
	C36.501995,46.471291 36.518372,46.513680 36.501995,46.471291 
z"/>
<path fill="#120B26" opacity="1.000000" stroke="none" 
	d="
M48.996559,33.528625 
	C47.575314,34.286839 46.154976,34.576839 44.065834,34.905563 
	C42.986179,34.876575 42.575325,34.808872 42.164474,34.741169 
	C42.074787,34.460415 42.014267,34.173508 42.311981,33.538940 
	C43.099972,32.145157 43.558903,31.092880 43.989460,29.830095 
	C43.961090,29.619587 43.986057,29.195599 44.241867,28.887300 
	C44.389820,26.232616 44.281960,23.886230 44.171928,21.427027 
	C44.169762,21.314209 44.168919,21.088531 44.230652,20.655787 
	C44.206646,19.649790 44.120903,19.076538 44.000336,18.454086 
	C43.965515,18.404882 43.850498,18.199686 43.657101,18.016579 
	C43.322464,17.725876 43.181221,17.618282 43.216541,17.343418 
	C43.758236,16.680387 44.123367,16.184631 44.577835,15.567581 
	C43.356400,15.334256 42.417435,15.154889 41.293831,14.743057 
	C40.980644,14.360117 40.852089,14.209642 40.790749,13.816110 
	C40.880943,13.406509 40.903931,13.239967 41.066319,12.752239 
	C41.219463,11.970613 41.233204,11.510176 41.295471,10.716121 
	C41.293167,9.938457 41.242332,9.494411 41.504517,9.143333 
	C44.210571,10.491108 46.603603,11.745912 48.996639,13.000715 
	C48.996918,19.687281 48.997196,26.373848 48.996559,33.528625 
z"/>
<path fill="#0D0B2F" opacity="1.000000" stroke="none" 
	d="
M3.020627,31.995968 
	C3.351423,25.955585 3.682218,19.915205 4.378037,13.376507 
	C6.822425,12.256436 8.901790,11.634683 11.303331,11.119677 
	C12.072697,11.992960 12.519887,12.759495 12.863792,13.727053 
	C12.472756,14.458728 12.185004,14.989382 11.676441,15.352154 
	C10.624242,15.973931 9.792854,16.763592 8.714815,17.813280 
	C8.144191,18.708654 7.820217,19.343998 7.349303,20.271496 
	C7.158610,21.423784 7.114858,22.283920 7.107122,23.547497 
	C7.749207,26.805988 8.355276,29.661043 8.837829,32.624409 
	C8.714313,32.732719 8.537438,33.009605 8.184416,33.004700 
	C6.227804,32.665188 4.624215,32.330578 3.020627,31.995968 
z"/>
<path fill="#0D092A" opacity="1.000000" stroke="none" 
	d="
M3.014204,32.440174 
	C4.624215,32.330578 6.227804,32.665188 8.337826,33.256874 
	C9.545794,34.173553 10.247329,34.833157 10.836180,35.922882 
	C10.518483,36.909225 10.313472,37.465443 9.842572,38.055237 
	C7.381085,41.532639 10.575273,40.539024 12.163389,41.182472 
	C12.614808,41.538883 12.839612,41.773617 13.199243,42.268463 
	C14.260762,42.129089 15.138939,41.776058 16.373047,41.355461 
	C16.952122,41.195488 17.175266,41.103073 17.629944,41.203278 
	C18.385561,41.256439 18.909647,41.116985 19.207920,41.261147 
	C19.485083,42.036133 19.988056,42.527500 20.144665,43.072609 
	C19.199078,45.078281 18.599857,47.030212 18.000637,48.982147 
	C16.613211,48.985012 15.225784,48.987873 13.351614,48.654362 
	C9.580450,45.543224 6.296029,42.768463 3.011607,39.993702 
	C3.010332,37.623928 3.009057,35.254154 3.014204,32.440174 
M6.908127,35.620205 
	C6.908127,35.620205 7.160169,35.440723 7.160169,35.440723 
	C7.160169,35.440723 6.832871,35.465023 6.908127,35.620205 
z"/>
<path fill="#0E092B" opacity="1.000000" stroke="none" 
	d="
M18.468155,48.987473 
	C18.599857,47.030212 19.199078,45.078281 20.545002,43.081726 
	C21.821785,43.100758 22.351864,43.164417 23.196409,43.439457 
	C25.287897,43.748760 27.064919,43.846684 29.068129,43.877136 
	C29.587194,43.679821 29.830919,43.487648 30.256947,43.116035 
	C30.659897,42.976616 30.831387,42.954308 31.337646,42.920311 
	C32.243160,42.305103 32.813900,41.701580 33.421612,41.132507 
	C33.458580,41.166958 33.463741,41.149231 33.838600,41.346535 
	C34.438812,41.373627 34.664162,41.203415 34.636154,41.246277 
	C34.508804,41.640537 34.634811,41.821724 34.858871,42.298973 
	C35.301388,42.818428 35.645847,43.041817 35.990307,43.265205 
	C35.659401,44.924156 35.328499,46.583111 34.994785,48.616508 
	C29.639875,48.991566 24.287773,48.992180 18.468155,48.987473 
z"/>
<path fill="#0C091F" opacity="1.000000" stroke="none" 
	d="
M10.981154,11.012930 
	C8.901790,11.634683 6.822425,12.256436 4.386765,12.951197 
	C2.823477,8.224931 5.645712,3.978978 10.708925,3.153543 
	C12.159518,2.917060 13.669059,3.042168 15.578377,3.003727 
	C16.003761,3.752397 16.002340,4.498817 15.796833,5.765372 
	C15.391756,6.553202 15.190763,6.820897 14.989769,7.088593 
	C14.849991,7.315510 14.683261,7.520506 13.907900,7.698976 
	C12.544532,8.800558 11.762843,9.906744 10.981154,11.012930 
z"/>
<path fill="#0C0921" opacity="1.000000" stroke="none" 
	d="
M48.993370,12.613093 
	C46.603603,11.745912 44.210571,10.491108 41.084000,9.030048 
	C40.063595,8.865666 39.776730,8.907540 39.489864,8.949414 
	C39.326050,7.222281 39.162235,5.495148 38.996941,3.387774 
	C45.464146,3.579638 47.942463,5.865358 48.993370,12.613093 
z"/>
<path fill="#0C0923" opacity="1.000000" stroke="none" 
	d="
M3.027364,40.363773 
	C6.296029,42.768463 9.580450,45.543224 12.935388,48.652870 
	C7.439250,48.947128 4.117798,46.196457 3.027364,40.363773 
z"/>
<path fill="#1F0B38" opacity="1.000000" stroke="none" 
	d="
M41.478470,14.975523 
	C42.417435,15.154889 43.356400,15.334256 44.577835,15.567581 
	C44.123367,16.184631 43.758236,16.680387 42.702461,17.246403 
	C41.623627,17.866182 41.235428,18.415705 40.809303,18.973944 
	C40.771378,18.982660 40.696232,19.010904 40.402573,19.017466 
	C39.077721,19.501740 38.046532,19.979450 36.919617,20.478670 
	C36.823891,20.500179 36.719280,20.666170 36.610336,20.355263 
	C36.363689,19.873251 36.225994,19.702148 36.129662,19.403021 
	C36.171028,19.274994 35.956360,19.112740 35.885342,18.854443 
	C35.539707,18.385281 35.265095,18.174412 34.870941,17.650051 
	C34.406277,17.280907 34.061142,17.225256 33.716011,17.169605 
	C33.744827,17.408850 33.773640,17.648094 33.752029,17.815254 
	C33.701599,17.743170 33.547600,17.828262 33.526154,17.643522 
	C33.504711,17.458782 33.144333,17.360357 33.144333,17.360357 
	C33.144333,17.360357 32.915642,17.654627 33.000687,17.251379 
	C32.830105,16.735193 32.574482,16.622255 32.544636,16.199173 
	C32.517712,15.445693 32.265003,15.002356 32.154072,14.452869 
	C32.492458,14.214444 32.700031,14.102472 33.130417,13.876694 
	C33.565426,13.496202 33.788578,13.249823 34.271927,13.073946 
	C34.895687,12.364817 35.259243,11.585184 35.622803,10.805552 
	C35.622803,10.805552 35.707832,10.505753 36.163559,10.829347 
	C37.087795,10.750981 37.556305,10.349023 38.024815,9.947064 
	C38.024815,9.947065 38.010597,9.988557 37.658691,10.323853 
	C37.214378,11.554973 37.121967,12.450797 37.100273,13.484627 
	C37.401249,13.865232 37.681877,13.985353 38.263016,14.046621 
	C38.685024,14.119083 38.856876,14.127918 39.053116,14.328711 
	C39.422634,14.845943 39.767757,15.171219 40.538437,15.586838 
	C41.135483,15.443295 41.306976,15.209409 41.478470,14.975523 
z"/>
<path fill="#170944" opacity="1.000000" stroke="none" 
	d="
M32.918556,14.010805 
	C32.700031,14.102472 32.492458,14.214444 32.014595,14.529989 
	C31.733349,14.713258 31.515749,14.946681 31.253891,14.649551 
	C29.386330,14.652029 27.780626,14.951637 25.945963,15.204372 
	C25.717003,15.157498 25.276440,15.313645 25.153957,14.954014 
	C24.682123,14.231607 24.332767,13.868831 23.996456,13.175920 
	C24.023455,11.964859 24.037413,11.083931 24.505888,10.153936 
	C26.803335,10.044988 28.646263,9.985106 30.489193,9.925225 
	C32.023033,10.199860 33.556873,10.474493 35.356758,10.777340 
	C35.259243,11.585184 34.895687,12.364817 34.066906,13.215219 
	C33.343746,13.499103 33.116039,13.740708 32.918556,14.010805 
z"/>
<path fill="#0F1049" opacity="1.000000" stroke="none" 
	d="
M11.897253,15.520036 
	C12.185004,14.989382 12.472756,14.458728 13.250317,13.581505 
	C14.003544,12.485377 14.266963,11.735819 14.530382,10.986261 
	C14.530382,10.986261 14.579230,10.989116 14.841505,11.284100 
	C15.583448,11.729071 16.063118,11.879059 16.542788,12.029046 
	C16.542788,12.029046 16.518347,11.904271 16.833872,12.098293 
	C18.294065,12.846349 19.438732,13.400383 20.459785,14.172731 
	C20.058125,14.803040 19.780077,15.215032 19.311714,15.678895 
	C19.121397,15.730767 18.842073,16.009373 18.584332,16.013599 
	C18.101347,16.258701 17.876106,16.499578 17.433308,16.859058 
	C16.972404,17.223215 16.841211,17.518566 16.597654,17.876871 
	C16.373133,17.890032 15.931535,17.975613 15.587402,17.908007 
	C14.127932,17.066946 13.012592,16.293491 11.897253,15.520036 
z"/>
<path fill="#110C52" opacity="1.000000" stroke="none" 
	d="
M20.583401,13.954416 
	C19.438732,13.400383 18.294065,12.846349 16.895790,12.083883 
	C16.642183,11.875450 16.745684,11.651760 17.178753,11.314857 
	C17.742992,10.459538 17.874161,9.941123 18.005329,9.422709 
	C18.648584,9.185145 19.291838,8.947582 20.528736,9.046462 
	C21.392021,9.423050 21.661663,9.463194 22.166695,9.658312 
	C22.951847,9.943191 23.501608,10.073097 24.051371,10.203004 
	C24.037413,11.083931 24.023455,11.964859 24.012150,13.297686 
	C24.014799,13.749585 23.980116,13.992669 23.574051,13.842487 
	C22.306456,13.779675 21.444929,13.867045 20.583401,13.954416 
z"/>
<path fill="#FBE74C" opacity="1.000000" stroke="none" 
	d="
M14.483050,10.606604 
	C14.266963,11.735819 14.003544,12.485377 13.353601,13.380482 
	C12.519887,12.759495 12.072697,11.992960 11.303331,11.119677 
	C11.762843,9.906744 12.544532,8.800558 13.754983,7.825752 
	C14.267736,8.713737 14.351727,9.470342 14.483050,10.606604 
z"/>
<path fill="#241385" opacity="1.000000" stroke="none" 
	d="
M24.505888,10.153936 
	C23.501608,10.073097 22.951847,9.943191 22.556873,9.481385 
	C24.128206,9.038541 25.544750,8.927596 27.339037,8.899994 
	C28.485214,9.005583 29.253651,9.027828 30.078842,9.133926 
	C30.135599,9.217780 30.218271,9.402647 30.218271,9.402647 
	C30.218271,9.402647 30.582830,9.545231 30.536011,9.735228 
	C28.646263,9.985106 26.803335,10.044988 24.505888,10.153936 
z"/>
<path fill="#3E2DAD" opacity="1.000000" stroke="none" 
	d="
M21.923983,7.996175 
	C23.966795,7.683292 26.009609,7.370409 28.517239,7.266352 
	C28.982054,7.475176 29.085409,7.846524 28.734222,7.925647 
	C27.908033,8.065380 27.433031,8.125990 26.544357,8.118880 
	C24.728451,8.032831 23.326218,8.014503 21.923983,7.996175 
z"/>
<path fill="#B5C0F5" opacity="1.000000" stroke="none" 
	d="
M21.628017,8.098778 
	C23.326218,8.014503 24.728451,8.032831 26.549887,8.276372 
	C26.969088,8.501584 26.961294,8.816650 26.961294,8.816650 
	C25.544750,8.927596 24.128206,9.038541 22.321484,9.326412 
	C21.661663,9.463194 21.392021,9.423050 20.765587,9.183073 
	C20.716545,8.722621 21.024300,8.462001 21.628017,8.098778 
z"/>
<path fill="#8127BD" opacity="1.000000" stroke="none" 
	d="
M37.029556,13.346622 
	C37.121967,12.450797 37.214378,11.554973 37.675003,10.309031 
	C38.254299,9.785978 38.465374,9.613045 38.987114,10.006792 
	C39.358452,11.367436 39.419128,12.161397 39.340504,13.240578 
	C39.143715,13.729448 39.086220,13.933100 39.028728,14.136752 
	C38.856876,14.127918 38.685024,14.119083 38.051979,13.833783 
	C37.403713,13.487085 37.216633,13.416853 37.029556,13.346622 
z"/>
<path fill="#5E167B" opacity="1.000000" stroke="none" 
	d="
M39.479801,12.955359 
	C39.419128,12.161397 39.358452,11.367436 39.358406,10.179055 
	C39.419041,9.784636 39.481941,9.842073 39.609161,10.131599 
	C39.809124,10.598611 39.881870,10.776097 39.862392,11.290490 
	C39.688244,12.083166 39.606323,12.538934 39.514580,12.981453 
	C39.504753,12.968204 39.479801,12.955359 39.479801,12.955359 
z"/>
<path fill="#230C5F" opacity="1.000000" stroke="none" 
	d="
M29.085409,7.846524 
	C29.085409,7.846524 28.982054,7.475176 28.922768,7.291806 
	C29.439190,7.164656 30.014894,7.220876 30.644573,7.517221 
	C30.698545,7.757346 30.294685,7.936464 29.989868,7.947585 
	C29.485168,7.921311 29.285290,7.883918 29.085409,7.846524 
z"/>
<path fill="#8127BD" opacity="1.000000" stroke="none" 
	d="
M38.045959,9.512606 
	C37.556305,10.349023 37.087795,10.750981 36.313393,10.786585 
	C36.694031,9.972869 37.380569,9.525509 38.045959,9.512606 
z"/>
<path fill="#A935D7" opacity="1.000000" stroke="none" 
	d="
M39.954617,10.953583 
	C39.881870,10.776097 39.809124,10.598611 39.593689,10.171282 
	C39.325569,9.754188 39.200134,9.586938 39.282280,9.184551 
	C39.776730,8.907540 40.063595,8.865666 40.770981,8.937078 
	C41.242332,9.494411 41.293167,9.938457 40.971222,10.707265 
	C40.383831,11.005878 40.169224,10.979731 39.954617,10.953583 
z"/>
<path fill="#1C1438" opacity="1.000000" stroke="none" 
	d="
M15.184280,6.930208 
	C15.190763,6.820897 15.391756,6.553202 15.797302,6.138681 
	C15.794166,6.251845 15.586478,6.511835 15.184280,6.930208 
z"/>
<path fill="#241385" opacity="1.000000" stroke="none" 
	d="
M30.294685,7.936464 
	C30.294685,7.936464 30.698545,7.757346 30.898594,7.661894 
	C31.092964,8.116109 31.087286,8.665776 30.649939,9.309046 
	C30.218271,9.402647 30.135599,9.217780 30.324055,8.898844 
	C30.439903,8.365426 30.367294,8.150945 30.294685,7.936464 
z"/>
<path fill="#498ED5" opacity="1.000000" stroke="none" 
	d="
M17.569603,9.648234 
	C17.874161,9.941123 17.742992,10.459538 17.290798,11.263544 
	C17.024475,10.990676 17.079178,10.432219 17.569603,9.648234 
z"/>
<path fill="#498ED5" opacity="1.000000" stroke="none" 
	d="
M16.364960,11.656202 
	C16.063118,11.879059 15.583448,11.729071 14.841047,11.308561 
	C15.114588,11.119812 15.650861,11.201586 16.364960,11.656202 
z"/>
<path fill="#250D25" opacity="1.000000" stroke="none" 
	d="
M40.551250,33.022072 
	C40.551250,33.022072 40.504517,33.141850 40.266571,33.193428 
	C39.942978,33.322285 39.774982,33.415859 39.786472,33.473919 
	C39.827854,33.683060 39.929749,33.880222 40.008789,34.081909 
	C40.079601,34.982231 40.150410,35.882549 40.011314,37.144798 
	C39.801403,37.506729 39.811504,37.747723 39.649780,37.272892 
	C38.654316,37.078079 37.820580,37.358097 36.969273,37.314941 
	C36.370106,35.998634 35.788513,35.005508 35.208969,33.780807 
	C35.211025,33.549232 35.133610,33.091927 35.367561,32.866699 
	C36.077049,31.940548 36.552593,31.239630 37.044662,30.529968 
	C37.061188,30.521227 37.071423,30.485260 37.304028,30.232780 
	C37.729004,29.322407 37.921375,28.664513 38.428375,28.007347 
	C39.162468,28.009363 39.581928,28.010654 40.125248,28.262699 
	C40.506546,29.010651 40.763992,29.507845 40.977821,30.384193 
	C40.806557,31.516256 40.678902,32.269165 40.551250,33.022072 
z"/>
<path fill="#4C1135" opacity="1.000000" stroke="none" 
	d="
M40.001392,28.011946 
	C39.581928,28.010654 39.162468,28.009363 38.365036,27.740417 
	C37.988781,27.289743 37.990498,27.106722 38.312546,26.823818 
	C39.070675,26.637985 39.508472,26.552036 40.174278,26.570469 
	C40.560795,26.727999 40.719303,26.781145 41.152405,26.957443 
	C41.823360,27.129799 42.219727,27.178999 42.630207,27.626461 
	C43.102161,28.696682 43.559994,29.368643 44.017830,30.040604 
	C43.558903,31.092880 43.099972,32.145157 42.304390,33.318871 
	C41.702454,33.469494 41.437172,33.498688 40.861568,33.274979 
	C40.678902,32.269165 40.806557,31.516256 41.122093,30.182928 
	C40.873787,29.072321 40.437588,28.542133 40.001392,28.011946 
z"/>
<path fill="#FC7A26" opacity="1.000000" stroke="none" 
	d="
M36.373886,43.154587 
	C35.645847,43.041817 35.301388,42.818428 34.994217,42.211449 
	C35.251003,41.533924 35.203671,41.269039 34.889511,41.033203 
	C34.664162,41.203415 34.438812,41.373627 34.221550,41.164604 
	C35.064735,40.072029 35.899830,39.358688 36.837254,38.947399 
	C36.984013,39.457371 37.028446,39.665287 37.048126,40.166870 
	C37.016018,40.656876 37.008656,40.853210 37.278625,41.262840 
	C39.134510,41.259136 40.713062,41.042145 42.291615,40.825153 
	C41.563332,42.963120 41.563332,42.963120 36.373886,43.154587 
z"/>
<path fill="#E26421" opacity="1.000000" stroke="none" 
	d="
M42.238499,40.557068 
	C40.713062,41.042145 39.134510,41.259136 37.608021,41.229362 
	C38.446453,40.655144 39.232826,40.327686 40.187569,39.854244 
	C40.571846,39.480389 40.679943,39.209492 40.839691,38.890827 
	C40.999157,38.886093 41.305439,38.975540 41.305439,38.975540 
	C41.598755,39.413353 41.892067,39.851170 42.238499,40.557068 
z"/>
<path fill="#270E25" opacity="1.000000" stroke="none" 
	d="
M42.162125,35.019211 
	C42.575325,34.808872 42.986179,34.876575 43.708374,34.971478 
	C43.665138,35.415073 43.310551,35.831470 42.955967,36.247868 
	C42.690567,35.930996 42.425171,35.614124 42.162125,35.019211 
z"/>
<path fill="#FCB133" opacity="1.000000" stroke="none" 
	d="
M39.917549,37.474243 
	C40.384033,37.733669 40.734364,38.025585 41.195068,38.646519 
	C41.305439,38.975540 40.999157,38.886093 40.671776,38.718735 
	C40.118267,38.315659 39.940639,38.047775 39.811504,37.747723 
	C39.811504,37.747723 39.801403,37.506729 39.917549,37.474243 
z"/>
<path fill="#0E092B" opacity="1.000000" stroke="none" 
	d="
M36.510185,46.492485 
	C36.518372,46.513680 36.501995,46.471291 36.510185,46.492485 
z"/>
<path fill="#341127" opacity="1.000000" stroke="none" 
	d="
M40.128860,33.863998 
	C39.929749,33.880222 39.827854,33.683060 39.786472,33.473919 
	C39.774982,33.415859 39.942978,33.322285 40.203392,33.205276 
	C40.378151,33.165546 40.248936,33.646084 40.128860,33.863998 
z"/>
<path fill="#BE703C" opacity="1.000000" stroke="none" 
	d="
M44.174103,21.539845 
	C44.281960,23.886230 44.389820,26.232616 44.193649,28.480900 
	C43.870625,27.574644 43.851627,26.766489 43.890099,25.522659 
	C44.023079,23.904606 44.098591,22.722225 44.174103,21.539845 
z"/>
<path fill="#F8DB96" opacity="1.000000" stroke="none" 
	d="
M44.171932,21.427027 
	C44.098591,22.722225 44.023079,23.904606 43.718010,25.524992 
	C43.488453,25.962997 43.144035,25.964911 43.088951,25.522095 
	C42.724041,23.647831 42.414211,22.216385 42.085617,20.514877 
	C42.010242,20.073450 41.953625,19.902086 42.509705,19.995350 
	C43.471241,20.536161 43.820080,20.812346 44.168919,21.088531 
	C44.168919,21.088531 44.169762,21.314209 44.171932,21.427027 
z"/>
<path fill="#5717AA" opacity="1.000000" stroke="none" 
	d="
M39.340504,13.240578 
	C39.479801,12.955359 39.504753,12.968204 39.866058,13.005219 
	C40.460545,13.052631 40.693729,13.063028 40.926914,13.073426 
	C40.903931,13.239967 40.880943,13.406509 40.622593,14.024638 
	C40.295780,14.816315 40.204330,15.156404 40.112885,15.496494 
	C39.767757,15.171219 39.422634,14.845943 39.053116,14.328711 
	C39.086220,13.933100 39.143715,13.729448 39.340504,13.240578 
z"/>
<path fill="#F9CA75" opacity="1.000000" stroke="none" 
	d="
M43.144035,25.964911 
	C43.144035,25.964911 43.488453,25.962997 43.660545,25.960667 
	C43.851627,26.766489 43.870625,27.574644 43.937836,28.789200 
	C43.986057,29.195599 43.961090,29.619587 43.989460,29.830095 
	C43.559994,29.368643 43.102161,28.696682 42.764492,27.310974 
	C42.971119,26.386457 43.057575,26.175684 43.144035,25.964911 
z"/>
<path fill="#8D3E38" opacity="1.000000" stroke="none" 
	d="
M44.230652,20.655785 
	C43.820080,20.812346 43.471241,20.536161 42.361458,19.925163 
	C41.382305,19.340082 41.131207,19.131708 40.847225,18.965225 
	C41.235428,18.415705 41.623627,17.866182 42.525902,17.413675 
	C43.181221,17.618282 43.322464,17.725876 43.614723,18.091171 
	C43.765743,18.348871 44.035156,18.503288 44.035156,18.503288 
	C44.120903,19.076538 44.206646,19.649790 44.230652,20.655785 
z"/>
<path fill="#8127BD" opacity="1.000000" stroke="none" 
	d="
M41.066319,12.752239 
	C40.693729,13.063028 40.460545,13.052631 39.875881,13.018469 
	C39.606323,12.538934 39.688244,12.083166 39.862392,11.290490 
	C40.169224,10.979731 40.383831,11.005878 40.922691,11.040881 
	C41.233204,11.510176 41.219463,11.970613 41.066319,12.752239 
z"/>
<path fill="#8127BD" opacity="1.000000" stroke="none" 
	d="
M40.538437,15.586838 
	C40.204330,15.156404 40.295780,14.816315 40.555382,14.267696 
	C40.852089,14.209642 40.980644,14.360117 41.293831,14.743057 
	C41.306976,15.209409 41.135483,15.443295 40.538437,15.586838 
z"/>
<path fill="#270C2E" opacity="1.000000" stroke="none" 
	d="
M44.000336,18.454086 
	C44.035156,18.503288 43.765743,18.348871 43.808121,18.274279 
	C43.850498,18.199686 43.965515,18.404882 44.000336,18.454086 
z"/>
<path fill="#0F0C4D" opacity="1.000000" stroke="none" 
	d="
M10.948864,35.492760 
	C10.247329,34.833157 9.545794,34.173553 8.690847,33.261780 
	C8.537438,33.009605 8.714313,32.732719 9.165086,32.475025 
	C9.628875,31.285337 9.641891,30.353342 9.805793,29.104828 
	C10.021184,28.564426 10.085690,28.340549 10.505207,28.108139 
	C11.804580,28.066496 12.748942,28.033384 13.765366,28.335274 
	C14.194638,29.472334 14.551852,30.274389 15.011845,31.283756 
	C15.307652,31.756824 15.566890,31.911997 15.985716,32.196373 
	C16.136078,32.769970 16.193060,33.103783 16.168644,33.784302 
	C15.745061,34.746326 15.402872,35.361649 14.650593,35.918056 
	C13.143290,35.737019 12.046077,35.614891 10.948864,35.492760 
z"/>
<path fill="#0F1357" opacity="1.000000" stroke="none" 
	d="
M11.676441,15.352154 
	C13.012592,16.293491 14.127932,17.066946 15.510855,18.222929 
	C15.466074,19.403137 15.153709,20.200817 14.640602,21.129059 
	C14.210176,21.489414 14.004693,21.739128 13.462765,21.979172 
	C12.378607,21.947697 11.655092,21.945808 10.792850,21.932705 
	C10.654123,21.921490 10.375462,21.896322 10.282648,21.614544 
	C10.094041,21.159735 9.998248,20.986704 9.920654,20.493893 
	C9.991173,19.967089 10.043491,19.760065 10.225702,19.190895 
	C9.890885,18.403582 9.426175,17.978416 8.961466,17.553251 
	C9.792854,16.763592 10.624242,15.973931 11.676441,15.352154 
z"/>
<path fill="#7BDEF4" opacity="1.000000" stroke="none" 
	d="
M9.654908,29.421349 
	C9.641891,30.353342 9.628875,31.285337 9.288602,32.366714 
	C8.355276,29.661043 7.749207,26.805988 7.286819,23.415478 
	C7.430498,22.880024 7.815245,22.654604 7.975383,22.883032 
	C8.372540,23.395273 8.609561,23.679089 8.912025,24.302479 
	C9.043013,25.097307 9.108553,25.552559 9.111666,26.360409 
	C9.251127,27.615786 9.453017,28.518566 9.654908,29.421349 
z"/>
<path fill="#111A51" opacity="1.000000" stroke="none" 
	d="
M7.815246,22.654604 
	C7.815245,22.654604 7.430498,22.880024 7.250802,23.012041 
	C7.114858,22.283920 7.158610,21.423784 7.473147,20.308235 
	C7.743932,20.052822 7.999080,20.015759 7.977126,20.347557 
	C7.908529,21.337772 7.861887,21.996189 7.815246,22.654604 
z"/>
<path fill="#173C9C" opacity="1.000000" stroke="none" 
	d="
M8.714815,17.813280 
	C9.426175,17.978416 9.890885,18.403582 9.872395,18.991808 
	C8.925821,19.441832 8.462450,19.728794 7.999080,20.015759 
	C7.999080,20.015759 7.743932,20.052822 7.620088,20.016083 
	C7.820217,19.343998 8.144191,18.708654 8.714815,17.813280 
z"/>
<path fill="#6732E7" opacity="1.000000" stroke="none" 
	d="
M10.836180,35.922882 
	C12.046077,35.614891 13.143290,35.737019 14.728507,36.270195 
	C15.411960,37.374924 15.607407,38.068596 15.538599,39.023125 
	C15.160645,39.503857 15.046945,39.723743 14.671203,40.077736 
	C13.944739,40.826168 13.480318,41.440491 13.015899,42.054813 
	C12.839612,41.773617 12.614808,41.538883 12.265230,40.895916 
	C14.353251,37.177368 10.816403,38.815765 10.108459,38.021664 
	C10.313472,37.465443 10.518483,36.909225 10.836180,35.922882 
z"/>
<path fill="#0F0B40" opacity="1.000000" stroke="none" 
	d="
M9.842571,38.055237 
	C10.816403,38.815765 14.353251,37.177368 12.087130,40.727776 
	C10.575273,40.539024 7.381085,41.532639 9.842571,38.055237 
z"/>
<path fill="#230E52" opacity="1.000000" stroke="none" 
	d="
M19.433731,40.977531 
	C18.909647,41.116985 18.385561,41.256439 17.639498,40.850662 
	C17.340086,39.842716 17.262653,39.380005 17.477203,38.880451 
	C18.510832,38.561317 19.252476,38.279026 20.208656,38.247936 
	C20.649382,39.345631 20.875568,40.192120 20.682941,41.072708 
	C19.987329,41.063713 19.710531,41.020622 19.433731,40.977531 
z"/>
<path fill="#D47FCF" opacity="1.000000" stroke="none" 
	d="
M19.207920,41.261147 
	C19.710531,41.020622 19.987329,41.063713 20.816118,41.185204 
	C21.368109,41.263603 21.717659,41.234653 22.030270,41.462322 
	C23.892004,41.848160 25.441128,42.006329 26.992674,42.333595 
	C26.995094,42.502686 26.996450,42.840904 26.586113,42.900017 
	C25.077833,43.048775 23.979889,43.138428 22.881945,43.228077 
	C22.351864,43.164417 21.821785,43.100758 20.891367,43.027985 
	C19.988056,42.527500 19.485083,42.036133 19.207920,41.261147 
z"/>
<path fill="#140943" opacity="1.000000" stroke="none" 
	d="
M13.199242,42.268463 
	C13.480318,41.440491 13.944739,40.826168 14.888123,40.295059 
	C15.583761,40.726521 15.800437,41.074776 16.017113,41.423027 
	C15.138939,41.776058 14.260762,42.129089 13.199242,42.268463 
z"/>
<path fill="#24107E" opacity="1.000000" stroke="none" 
	d="
M16.373045,41.355461 
	C15.800437,41.074776 15.583761,40.726521 15.150165,40.160946 
	C15.046945,39.723743 15.160645,39.503857 15.766907,39.036293 
	C16.566662,38.841492 16.875246,38.884388 17.185223,38.917294 
	C17.262653,39.380005 17.340086,39.842716 17.407965,40.658043 
	C17.175266,41.103073 16.952122,41.195488 16.373045,41.355461 
z"/>
<path fill="#0F0B40" opacity="1.000000" stroke="none" 
	d="
M6.870499,35.542614 
	C6.832871,35.465023 7.160169,35.440723 7.160169,35.440723 
	C7.160169,35.440723 6.908127,35.620205 6.870499,35.542614 
z"/>
<path fill="#1D0B26" opacity="1.000000" stroke="none" 
	d="
M36.734924,38.645344 
	C35.899830,39.358688 35.064735,40.072029 33.846691,40.967300 
	C33.463741,41.149231 33.458580,41.166958 33.016129,40.969070 
	C31.704700,40.713566 30.835724,40.655945 29.976257,40.268272 
	C30.312849,38.453423 30.639929,36.968632 31.216812,35.395470 
	C31.610062,35.203999 31.753506,35.100887 32.249096,35.004471 
	C33.469799,34.678230 34.338360,34.345303 35.206917,34.012379 
	C35.788513,35.005508 36.370106,35.998634 36.908478,37.567600 
	C36.821812,38.310738 36.778370,38.478043 36.734924,38.645344 
z"/>
<path fill="#722577" opacity="1.000000" stroke="none" 
	d="
M23.196409,43.439457 
	C23.979889,43.138428 25.077833,43.048775 26.930820,42.954620 
	C28.143824,43.017094 28.601786,43.084072 29.011944,43.351265 
	C28.964142,43.551479 28.841942,43.944607 28.841942,43.944607 
	C27.064919,43.846684 25.287897,43.748760 23.196409,43.439457 
z"/>
<path fill="#DF89BE" opacity="1.000000" stroke="none" 
	d="
M29.059746,43.151051 
	C28.601786,43.084072 28.143824,43.017094 27.341156,42.895508 
	C26.996450,42.840904 26.995094,42.502686 27.338070,42.244720 
	C28.127462,41.836739 28.573881,41.686722 29.241459,41.541138 
	C29.462620,41.545574 29.854292,41.339855 30.088428,41.576836 
	C30.549335,42.186546 30.776106,42.559273 31.002878,42.932003 
	C30.831387,42.954308 30.659897,42.976616 30.019312,43.048897 
	C29.550217,43.098869 29.059746,43.151051 29.059746,43.151051 
z"/>
<path fill="#4D145B" opacity="1.000000" stroke="none" 
	d="
M31.337646,42.920311 
	C30.776106,42.559273 30.549335,42.186546 30.084335,41.386551 
	C29.846109,40.959282 29.966747,40.598328 29.966747,40.598328 
	C30.835724,40.655945 31.704700,40.713566 32.979160,40.934620 
	C32.813900,41.701580 32.243160,42.305103 31.337646,42.920311 
z"/>
<path fill="#270C2E" opacity="1.000000" stroke="none" 
	d="
M29.011944,43.351265 
	C29.059746,43.151051 29.550217,43.098869 29.787853,43.166008 
	C29.830919,43.487648 29.587194,43.679821 29.068129,43.877136 
	C28.841942,43.944607 28.964142,43.551479 29.011944,43.351265 
z"/>
<path fill="#F78B2C" opacity="1.000000" stroke="none" 
	d="
M34.636154,41.246277 
	C35.203671,41.269039 35.251003,41.533924 34.896160,41.915382 
	C34.634811,41.821724 34.508804,41.640537 34.636154,41.246277 
z"/>
<path fill="#270C2E" opacity="1.000000" stroke="none" 
	d="
M37.015339,20.457161 
	C38.046532,19.979450 39.077721,19.501740 40.498451,19.276041 
	C41.111275,20.022943 41.334560,20.517830 41.613365,21.339142 
	C41.684551,22.106482 41.700218,22.547398 41.590805,23.083092 
	C41.301941,23.308573 41.155773,23.456659 40.934258,23.806938 
	C40.841290,23.991739 40.883362,24.403330 40.854431,24.403111 
	C40.825500,24.402893 40.784203,24.369722 40.484146,24.196836 
	C39.496834,23.958221 38.809578,23.892490 38.098419,23.568748 
	C37.894314,22.858379 37.714111,22.406021 37.402756,21.580063 
	C37.186180,20.956697 37.100761,20.706930 37.015339,20.457161 
z"/>
<path fill="#CF3BC9" opacity="1.000000" stroke="none" 
	d="
M31.515751,14.946682 
	C31.515749,14.946681 31.733349,14.713258 31.872824,14.636139 
	C32.265003,15.002356 32.517712,15.445693 32.268456,16.352211 
	C31.229338,17.131489 30.692181,17.447586 29.926144,17.921730 
	C29.477964,18.368031 29.258665,18.656284 29.058491,19.172523 
	C29.077618,19.400507 29.164837,19.849688 29.220678,20.031094 
	C29.406546,20.442680 29.598196,20.595497 29.864521,21.043579 
	C29.877092,21.664768 29.876610,21.913336 29.848726,22.185932 
	C29.821327,22.209961 29.758667,22.238142 29.266121,22.193501 
	C28.113319,22.134012 27.453068,22.119164 26.758362,21.721807 
	C26.473797,20.375862 26.223686,19.412428 26.216866,18.222706 
	C28.145355,16.979841 29.830553,15.963263 31.515751,14.946682 
z"/>
<path fill="#E45495" opacity="1.000000" stroke="none" 
	d="
M29.876125,22.161905 
	C29.876610,21.913336 29.877092,21.664768 29.885847,20.855217 
	C29.894121,20.294230 29.869106,19.911919 29.888702,19.925682 
	C29.908298,19.939445 29.925039,19.894571 30.132355,19.793953 
	C30.594893,19.514872 30.804379,19.293194 31.141273,18.858019 
	C31.531008,18.410170 31.594021,18.101215 31.855749,17.724281 
	C32.443905,17.676666 32.679775,17.665646 32.915642,17.654627 
	C32.915642,17.654627 33.144333,17.360357 33.144333,17.360357 
	C33.144333,17.360357 33.504711,17.458782 33.791302,17.862995 
	C34.704048,18.549051 35.330204,18.830894 35.956360,19.112740 
	C35.956360,19.112740 36.171028,19.274994 35.755470,19.454195 
	C34.203159,20.537802 33.066406,21.442207 31.866610,22.403492 
	C31.803568,22.460371 31.635981,22.443907 31.210875,22.344933 
	C30.502665,22.178692 30.219563,22.111427 29.935638,22.080906 
	C29.934813,22.117649 29.876125,22.161905 29.876125,22.161905 
z"/>
<path fill="#F67F6A" opacity="1.000000" stroke="none" 
	d="
M31.929651,22.346613 
	C33.066406,21.442207 34.203159,20.537802 35.714104,19.582222 
	C36.225994,19.702148 36.363689,19.873251 36.309700,20.539700 
	C35.389088,21.617109 34.660156,22.199173 33.529732,22.788767 
	C32.860485,22.785118 32.592731,22.773937 32.294495,22.731853 
	C32.125782,22.568769 32.041557,22.407724 32.005058,22.258984 
	C31.998774,22.300150 31.929651,22.346613 31.929651,22.346613 
z"/>
<path fill="#E7566B" opacity="1.000000" stroke="none" 
	d="
M33.931225,22.781235 
	C34.660156,22.199173 35.389088,21.617109 36.418648,20.850609 
	C36.719280,20.666170 36.823891,20.500179 36.919617,20.478672 
	C37.100761,20.706930 37.186180,20.956697 37.086384,21.795113 
	C35.911186,22.516253 34.921207,22.648745 33.931225,22.781235 
z"/>
<path fill="#43122E" opacity="1.000000" stroke="none" 
	d="
M41.557842,21.012718 
	C41.334560,20.517830 41.111275,20.022943 40.792114,19.269480 
	C40.696232,19.010904 40.771378,18.982660 40.809303,18.973942 
	C41.131207,19.131708 41.382305,19.340082 41.748764,19.660536 
	C41.953625,19.902086 42.010242,20.073450 41.938446,20.546545 
	C41.810040,20.848274 41.557842,21.012718 41.557842,21.012718 
z"/>
<path fill="#EF63F9" opacity="1.000000" stroke="none" 
	d="
M30.155024,17.763683 
	C30.692181,17.447586 31.229338,17.131489 32.042675,16.662354 
	C32.574482,16.622255 32.830105,16.735193 33.000687,17.251379 
	C32.679775,17.665646 32.443905,17.676666 31.637194,17.731293 
	C30.762283,17.795399 30.458508,17.791660 30.155024,17.763683 
z"/>
<path fill="#E7566B" opacity="1.000000" stroke="none" 
	d="
M35.885342,18.854443 
	C35.330204,18.830894 34.704048,18.549051 33.812744,18.047735 
	C33.547600,17.828262 33.701599,17.743170 34.049896,17.824184 
	C34.595623,17.924650 34.793049,17.944098 34.990479,17.963545 
	C35.265095,18.174412 35.539707,18.385281 35.885342,18.854443 
z"/>
<path fill="#310E4A" opacity="1.000000" stroke="none" 
	d="
M33.130417,13.876694 
	C33.116039,13.740708 33.343746,13.499103 33.806709,13.144716 
	C33.788578,13.249823 33.565426,13.496202 33.130417,13.876694 
z"/>
<path fill="#5E167B" opacity="1.000000" stroke="none" 
	d="
M37.100273,13.484627 
	C37.216633,13.416853 37.403713,13.487085 37.801826,13.770155 
	C37.681877,13.985353 37.401249,13.865232 37.100273,13.484627 
z"/>
<path fill="#FBABBA" opacity="1.000000" stroke="none" 
	d="
M34.870941,17.650051 
	C34.793049,17.944098 34.595623,17.924650 34.100327,17.896271 
	C33.773640,17.648094 33.744827,17.408850 33.716011,17.169605 
	C34.061142,17.225256 34.406277,17.280907 34.870941,17.650051 
z"/>
<path fill="#8986FC" opacity="1.000000" stroke="none" 
	d="
M23.999107,13.627819 
	C24.332767,13.868831 24.682123,14.231607 25.102095,15.285706 
	C25.211199,16.432098 25.249683,16.887169 25.432453,17.535984 
	C25.606438,18.123636 25.427368,18.357584 24.875328,18.778439 
	C24.625858,19.366522 24.540585,19.607737 24.219563,19.864796 
	C23.669077,19.910021 23.355930,19.951422 22.758709,19.918346 
	C22.089354,19.217234 21.705662,18.602615 21.557480,17.956295 
	C22.522030,16.613951 23.251072,15.303309 23.980116,13.992669 
	C23.980116,13.992669 24.014799,13.749585 23.999107,13.627819 
z"/>
<path fill="#EF63F9" opacity="1.000000" stroke="none" 
	d="
M25.039526,18.431572 
	C25.427368,18.357584 25.606438,18.123636 25.734428,17.414661 
	C25.986389,16.483477 26.080656,15.867361 26.174923,15.251245 
	C27.780626,14.951637 29.386330,14.652029 31.253891,14.649551 
	C29.830553,15.963263 28.145355,16.979841 25.987261,18.008169 
	C25.356083,18.157135 25.197803,18.294353 25.039526,18.431572 
z"/>
<path fill="#AB58D5" opacity="1.000000" stroke="none" 
	d="
M25.945963,15.204372 
	C26.080656,15.867361 25.986389,16.483477 25.590145,17.220917 
	C25.249683,16.887169 25.211199,16.432098 25.224575,15.645337 
	C25.276440,15.313645 25.717003,15.157498 25.945963,15.204372 
z"/>
<path fill="#297FF6" opacity="1.000000" stroke="none" 
	d="
M21.321970,17.987997 
	C21.705662,18.602615 22.089354,19.217234 22.667336,20.209024 
	C22.812103,20.783127 22.762581,20.980057 22.434374,21.191799 
	C21.453636,21.485376 20.751583,21.764141 19.737722,22.107922 
	C18.929316,22.786926 18.432716,23.400913 17.716091,24.010311 
	C17.496061,24.005722 17.050226,24.002880 16.944000,23.776394 
	C16.590279,23.330593 16.342783,23.111280 15.868638,22.732052 
	C15.282741,22.510029 14.923493,22.447922 14.531338,22.349409 
	C14.498430,22.313004 14.545014,22.226614 14.650475,21.927156 
	C14.784404,21.417967 14.812874,21.208233 14.841345,20.998497 
	C15.153709,20.200817 15.466074,19.403137 15.854986,18.290535 
	C15.931535,17.975613 16.373133,17.890032 16.959293,17.901928 
	C18.690752,17.548937 19.836050,17.184048 21.056814,17.114191 
	C21.195507,17.602148 21.258738,17.795073 21.321970,17.987997 
z"/>
<path fill="#6578F6" opacity="1.000000" stroke="none" 
	d="
M21.557480,17.956295 
	C21.258738,17.795073 21.195507,17.602148 20.838921,16.883896 
	C20.197718,16.114719 19.849874,15.870871 19.502029,15.627023 
	C19.780077,15.215032 20.058125,14.803040 20.459785,14.172731 
	C21.444929,13.867045 22.306456,13.779675 23.574051,13.842487 
	C23.251072,15.303309 22.522030,16.613951 21.557480,17.956295 
z"/>
<path fill="#61C0F6" opacity="1.000000" stroke="none" 
	d="
M19.311714,15.678895 
	C19.849874,15.870871 20.197718,16.114719 20.763456,16.588861 
	C19.836050,17.184048 18.690752,17.548937 17.183815,17.888767 
	C16.841211,17.518566 16.972404,17.223215 17.661608,16.792791 
	C18.406307,16.474680 18.651178,16.275162 18.842073,16.009373 
	C18.842073,16.009373 19.121397,15.730767 19.311714,15.678895 
z"/>
<path fill="#7CB2EE" opacity="1.000000" stroke="none" 
	d="
M18.584332,16.013599 
	C18.651178,16.275162 18.406307,16.474680 17.879166,16.674191 
	C17.876106,16.499578 18.101347,16.258701 18.584332,16.013599 
z"/>
<path fill="#D2A9F5" opacity="1.000000" stroke="none" 
	d="
M29.989868,7.947585 
	C30.367294,8.150945 30.439903,8.365426 30.267300,8.814991 
	C29.253651,9.027828 28.485214,9.005583 27.339037,8.899994 
	C26.961294,8.816650 26.969088,8.501584 26.963558,8.344092 
	C27.433031,8.125990 27.908033,8.065380 28.734222,7.925647 
	C29.285290,7.883918 29.485168,7.921311 29.989868,7.947585 
z"/>
<path fill="#EC3024" opacity="1.000000" stroke="none" 
	d="
M37.071423,30.485260 
	C37.071423,30.485260 37.061188,30.521227 36.684151,30.513294 
	C35.521271,31.009962 34.735424,31.514563 33.715187,32.218262 
	C33.231369,32.741684 32.981937,33.066013 32.447487,33.337692 
	C31.974072,33.242100 31.785679,33.199150 31.576122,33.005966 
	C31.504734,32.668060 31.457811,32.479561 31.167599,32.049232 
	C30.609095,31.196316 30.297178,30.584406 30.011749,29.797146 
	C30.038237,29.621794 30.025949,29.267324 30.293987,29.051903 
	C30.797844,28.449417 31.033659,28.062351 31.293823,27.671280 
	C31.318174,27.667274 31.356342,27.694029 31.700754,27.673122 
	C32.467953,27.468950 32.890736,27.285685 33.503746,27.129555 
	C33.946533,27.166538 34.199108,27.176214 34.461014,27.456717 
	C35.337368,28.646898 36.204395,29.566078 37.071423,30.485260 
z"/>
<path fill="#D2704A" opacity="1.000000" stroke="none" 
	d="
M37.304028,30.232780 
	C36.204395,29.566078 35.337368,28.646898 34.694065,27.162334 
	C35.924183,25.951529 36.930576,25.306105 37.986588,24.843250 
	C38.036201,25.025822 38.104145,25.398056 38.080917,25.779816 
	C38.035866,26.415621 38.014038,26.669662 37.992214,26.923702 
	C37.990498,27.106722 37.988781,27.289743 38.050407,27.739693 
	C37.921375,28.664513 37.729004,29.322407 37.304028,30.232780 
z"/>
<path fill="#FAD13F" opacity="1.000000" stroke="none" 
	d="
M36.837254,38.947399 
	C36.778370,38.478043 36.821812,38.310738 36.926048,37.890778 
	C37.820580,37.358097 38.654316,37.078079 39.649780,37.272892 
	C39.940639,38.047775 40.118267,38.315659 40.512306,38.723469 
	C40.679943,39.209492 40.571846,39.480389 39.819199,39.821648 
	C38.545933,39.914425 37.809402,39.893814 37.072876,39.873203 
	C37.028446,39.665287 36.984013,39.457371 36.837254,38.947399 
z"/>
<path fill="#E26421" opacity="1.000000" stroke="none" 
	d="
M32.732506,33.390343 
	C32.981937,33.066013 33.231369,32.741684 33.892807,32.417938 
	C34.581081,32.642994 34.857346,32.867458 35.133610,33.091927 
	C35.133610,33.091927 35.211025,33.549232 35.208969,33.780807 
	C34.338360,34.345303 33.469799,34.678230 32.354919,34.795197 
	C32.316570,34.182938 32.524536,33.786640 32.732506,33.390343 
z"/>
<path fill="#FC7A26" opacity="1.000000" stroke="none" 
	d="
M35.367561,32.866699 
	C34.857346,32.867458 34.581081,32.642994 34.127197,32.218845 
	C34.735424,31.514563 35.521271,31.009962 36.667625,30.522034 
	C36.552593,31.239630 36.077049,31.940548 35.367561,32.866699 
z"/>
<path fill="#39102D" opacity="1.000000" stroke="none" 
	d="
M40.125248,28.262699 
	C40.437588,28.542133 40.873787,29.072321 41.165710,29.803776 
	C40.763992,29.507845 40.506546,29.010651 40.125248,28.262699 
z"/>
<path fill="#8D3E38" opacity="1.000000" stroke="none" 
	d="
M41.613365,21.339142 
	C41.557842,21.012718 41.810040,20.848274 41.957211,20.816607 
	C42.414211,22.216385 42.724041,23.647831 43.088951,25.522095 
	C43.057575,26.175684 42.971119,26.386457 42.750374,26.912716 
	C42.219727,27.178999 41.823360,27.129799 41.223091,26.735960 
	C41.019188,26.391323 41.125385,25.937534 41.198563,25.748436 
	C41.142281,25.174002 41.012821,24.788666 40.883362,24.403330 
	C40.883362,24.403330 40.841290,23.991739 41.115875,23.798393 
	C41.630775,23.469194 41.739250,23.263617 41.715885,22.988312 
	C41.700218,22.547398 41.684551,22.106482 41.613365,21.339142 
z"/>
<path fill="#EC8F4D" opacity="1.000000" stroke="none" 
	d="
M38.312546,26.823818 
	C38.014038,26.669662 38.035866,26.415621 38.281353,25.935310 
	C38.505016,25.709042 38.978661,25.865940 39.201946,25.920286 
	C39.425232,25.974632 39.877827,26.040686 39.889580,26.151707 
	C39.901333,26.262728 39.973217,26.474121 39.967453,26.482967 
	C39.961689,26.491812 39.946270,26.466087 39.946270,26.466087 
	C39.508472,26.552036 39.070675,26.637985 38.312546,26.823818 
z"/>
<path fill="#DF7F46" opacity="1.000000" stroke="none" 
	d="
M40.174278,26.570469 
	C39.946270,26.466087 39.961689,26.491812 40.249561,26.335165 
	C40.733418,26.098192 40.929401,26.017864 41.125385,25.937534 
	C41.125385,25.937534 41.019188,26.391323 40.948498,26.612806 
	C40.719303,26.781145 40.560795,26.727999 40.174278,26.570469 
z"/>
<path fill="#F78B2C" opacity="1.000000" stroke="none" 
	d="
M37.048126,40.166870 
	C37.809402,39.893814 38.545933,39.914425 39.650826,39.967636 
	C39.232826,40.327686 38.446453,40.655144 37.330688,41.016075 
	C37.008656,40.853210 37.016018,40.656876 37.048126,40.166870 
z"/>
<path fill="#13093F" opacity="1.000000" stroke="none" 
	d="
M17.477203,38.880451 
	C16.875246,38.884388 16.566662,38.841492 16.031160,38.775444 
	C15.607407,38.068596 15.411960,37.374924 15.138597,36.329109 
	C15.402872,35.361649 15.745061,34.746326 16.358200,33.854103 
	C16.629150,33.577194 16.986830,33.765060 17.125761,33.967106 
	C17.264692,34.169151 17.716196,34.360584 17.945677,34.549309 
	C18.761051,34.813267 19.346945,34.888496 20.103619,35.144943 
	C20.543972,35.524364 20.780581,35.756203 20.864994,36.270828 
	C20.495216,37.012222 20.244667,37.504475 19.994118,37.996735 
	C19.252476,38.279026 18.510832,38.561317 17.477203,38.880451 
z"/>
<path fill="#1D45E4" opacity="1.000000" stroke="none" 
	d="
M14.909066,31.076445 
	C14.551852,30.274389 14.194638,29.472334 13.867058,28.352345 
	C13.896690,28.034409 14.094707,27.976793 14.458723,27.960249 
	C15.552376,27.960371 16.282011,27.977039 17.153690,28.188246 
	C17.508266,28.628576 17.755335,28.832542 18.031647,29.252914 
	C18.026716,29.683342 18.027079,29.855534 17.712591,30.031010 
	C16.669838,30.325302 15.941933,30.616310 15.138279,30.950485 
	C15.062531,30.993654 14.909066,31.076445 14.909066,31.076445 
z"/>
<path fill="#131F8B" opacity="1.000000" stroke="none" 
	d="
M13.794998,28.017340 
	C12.748942,28.033384 11.804580,28.066496 10.526960,27.851816 
	C10.241367,27.439552 10.289028,27.275078 10.521399,27.008465 
	C11.111724,26.758041 11.517340,26.609758 12.039398,26.567909 
	C12.324106,26.804369 12.509290,26.902451 12.974251,27.094868 
	C13.522978,27.473024 13.808842,27.724909 14.094707,27.976793 
	C14.094707,27.976793 13.896690,28.034409 13.794998,28.017340 
z"/>
<path fill="#2C4BF3" opacity="1.000000" stroke="none" 
	d="
M15.892335,31.956583 
	C15.566890,31.911997 15.307652,31.756824 15.011845,31.283756 
	C14.909066,31.076445 15.062531,30.993654 15.482718,30.989651 
	C16.602951,30.980629 17.302996,30.975611 18.256145,30.982195 
	C18.678059,30.999685 18.846870,31.005575 19.001751,31.246655 
	C18.987822,31.481846 18.958357,31.952129 18.634720,31.973928 
	C17.877094,31.999710 17.443110,32.003689 16.729738,31.999012 
	C16.264347,31.979097 16.078342,31.967840 15.892335,31.956583 
z"/>
<path fill="#2250A7" opacity="1.000000" stroke="none" 
	d="
M10.336691,27.110605 
	C10.289028,27.275078 10.241367,27.439552 10.171951,27.860348 
	C10.085690,28.340549 10.021184,28.564426 9.805793,29.104828 
	C9.453017,28.518566 9.251127,27.615786 9.324682,26.520885 
	C9.845649,26.589380 10.091170,26.849993 10.336691,27.110605 
z"/>
<path fill="#5175F4" opacity="1.000000" stroke="none" 
	d="
M15.985716,32.196373 
	C16.078342,31.967840 16.264347,31.979097 16.699638,32.291191 
	C16.961557,32.983044 16.974194,33.374050 16.986830,33.765060 
	C16.986830,33.765060 16.629150,33.577194 16.439594,33.507393 
	C16.193060,33.103783 16.136078,32.769970 15.985716,32.196373 
z"/>
<path fill="#11229B" opacity="1.000000" stroke="none" 
	d="
M12.711389,26.968594 
	C12.509290,26.902451 12.324106,26.804369 11.960125,26.132275 
	C11.409195,24.798126 11.053981,24.006052 10.762155,23.009510 
	C10.900959,22.522957 10.936303,22.235918 10.931577,21.943922 
	C11.655092,21.945808 12.378607,21.947697 13.643644,22.032141 
	C14.185165,22.114698 14.545014,22.226614 14.545014,22.226614 
	C14.545014,22.226614 14.498430,22.313004 14.539718,22.402925 
	C14.581005,22.492847 14.691513,22.539316 14.488484,22.703732 
	C14.136333,23.180973 13.987211,23.493801 13.303785,23.872478 
	C12.833580,24.800310 12.897677,25.662291 12.895617,26.633345 
	C12.829459,26.742418 12.711389,26.968594 12.711389,26.968594 
z"/>
<path fill="#173C9C" opacity="1.000000" stroke="none" 
	d="
M10.698767,23.213976 
	C11.053981,24.006052 11.409195,24.798126 11.843683,26.025837 
	C11.517340,26.609758 11.111724,26.758041 10.521399,27.008465 
	C10.091170,26.849993 9.845649,26.589380 9.387112,26.168291 
	C9.108553,25.552559 9.043013,25.097307 8.991997,23.972260 
	C9.305166,22.472868 9.603811,21.643270 9.902455,20.813671 
	C9.998248,20.986704 10.094041,21.159735 10.228220,21.808424 
	C10.410660,22.594046 10.554713,22.904011 10.698767,23.213976 
z"/>
<path fill="#94F1F7" opacity="1.000000" stroke="none" 
	d="
M9.920654,20.493893 
	C9.603811,21.643270 9.305166,22.472868 8.926552,23.632685 
	C8.609561,23.679089 8.372540,23.395273 7.975383,22.883032 
	C7.861887,21.996189 7.908529,21.337772 7.977125,20.347557 
	C8.462450,19.728794 8.925821,19.441832 9.742500,19.353954 
	C10.043491,19.760065 9.991173,19.967089 9.920654,20.493893 
z"/>
<path fill="#0E1676" opacity="1.000000" stroke="none" 
	d="
M10.762155,23.009510 
	C10.554713,22.904011 10.410660,22.594046 10.321033,22.090202 
	C10.375462,21.896322 10.654123,21.921490 10.792850,21.932705 
	C10.936303,22.235918 10.900959,22.522957 10.762155,23.009510 
z"/>
<path fill="#1D5EF6" opacity="1.000000" stroke="none" 
	d="
M14.650475,21.927156 
	C14.545014,22.226614 14.185165,22.114698 14.004286,22.061729 
	C14.004693,21.739128 14.210176,21.489414 14.640602,21.129059 
	C14.812874,21.208233 14.784404,21.417967 14.650475,21.927156 
z"/>
<path fill="#170935" opacity="1.000000" stroke="none" 
	d="
M20.208656,38.247932 
	C20.244667,37.504475 20.495216,37.012222 21.011902,36.244644 
	C21.278038,35.969318 21.567909,36.039368 21.849316,36.049210 
	C22.725336,36.102009 23.319950,36.144970 24.005493,36.522110 
	C24.404270,38.187912 24.712118,39.519535 24.604321,40.884682 
	C23.365004,41.023685 22.541330,41.129169 21.717659,41.234653 
	C21.717659,41.234653 21.368109,41.263603 21.234932,41.151108 
	C20.875568,40.192120 20.649382,39.345631 20.208656,38.247932 
z"/>
<path fill="#4D145B" opacity="1.000000" stroke="none" 
	d="
M22.030270,41.462322 
	C22.541330,41.129169 23.365004,41.023685 24.946957,40.922314 
	C26.810259,41.129848 27.915277,41.333279 29.020298,41.536705 
	C28.573881,41.686722 28.127462,41.836739 27.335649,42.075630 
	C25.441128,42.006329 23.892004,41.848160 22.030270,41.462322 
z"/>
<path fill="#16082B" opacity="1.000000" stroke="none" 
	d="
M29.241459,41.541138 
	C27.915277,41.333279 26.810259,41.129848 25.362602,40.888794 
	C24.712118,39.519535 24.404270,38.187912 24.023602,36.478432 
	C23.950779,36.100574 23.942020,36.008766 24.017908,35.781532 
	C24.093796,35.554295 24.057007,35.076565 24.335068,35.046200 
	C24.833321,34.719265 25.053514,34.422699 25.478249,34.185387 
	C25.682789,34.244644 26.109077,34.251881 26.109077,34.251881 
	C26.109077,34.251881 26.488335,34.057098 26.611134,34.331848 
	C27.691223,34.971817 28.648514,35.337040 29.742992,35.788921 
	C29.880180,35.875580 30.201483,35.829926 30.421757,35.807316 
	C30.642031,35.784706 30.967007,35.483837 30.967007,35.483837 
	C30.639929,36.968632 30.312849,38.453423 29.976257,40.268272 
	C29.966747,40.598328 29.846109,40.959282 29.850201,41.149567 
	C29.854292,41.339855 29.462620,41.545574 29.241459,41.541138 
z"/>
<path fill="#C57229" opacity="1.000000" stroke="none" 
	d="
M32.447487,33.337692 
	C32.524536,33.786640 32.316570,34.182938 32.002777,34.788506 
	C31.753506,35.100887 31.610062,35.203999 31.216812,35.395470 
	C30.967007,35.483837 30.642031,35.784706 30.672668,35.375328 
	C30.983276,34.371922 31.263245,33.777889 31.554312,33.170845 
	C31.565411,33.157829 31.597286,33.156197 31.597286,33.156197 
	C31.785679,33.199150 31.974072,33.242100 32.447487,33.337692 
z"/>
<path fill="#C93741" opacity="1.000000" stroke="none" 
	d="
M37.936970,24.660683 
	C36.930576,25.306105 35.924183,25.951529 34.684738,26.891335 
	C34.199108,27.176214 33.946533,27.166538 33.249699,26.895199 
	C32.198490,26.322880 31.591547,26.012053 30.930580,25.661623 
	C30.876553,25.622023 30.933323,25.500671 30.921848,24.992767 
	C30.889931,24.146795 30.869488,23.808723 30.983017,23.167257 
	C31.263365,22.698143 31.409739,22.532425 31.630753,22.247181 
	C31.705391,22.127657 31.974264,22.212122 32.109844,22.221886 
	C32.365749,22.418293 32.486073,22.604939 32.606400,22.791584 
	C32.512592,22.781975 32.418785,22.772366 32.324978,22.762756 
	C32.592731,22.773937 32.860485,22.785118 33.529732,22.788767 
	C34.921207,22.648745 35.911186,22.516253 37.217537,22.168713 
	C37.714111,22.406021 37.894314,22.858379 38.045364,23.775644 
	C38.016209,24.240551 37.936970,24.660683 37.936970,24.660683 
z"/>
<path fill="#A85A44" opacity="1.000000" stroke="none" 
	d="
M37.986588,24.843252 
	C37.936970,24.660683 38.016209,24.240551 38.069267,24.033657 
	C38.809578,23.892490 39.496834,23.958221 40.281311,24.351942 
	C40.251060,24.788454 40.123589,24.896973 39.776764,25.086212 
	C39.265388,25.317934 39.072472,25.550934 38.978661,25.865940 
	C38.978661,25.865940 38.505016,25.709042 38.304581,25.553549 
	C38.104145,25.398056 38.036201,25.025822 37.986588,24.843252 
z"/>
<path fill="#A85A44" opacity="1.000000" stroke="none" 
	d="
M41.198563,25.748436 
	C40.929401,26.017864 40.733418,26.098192 40.255325,26.326321 
	C39.973217,26.474121 39.901333,26.262728 39.957047,25.896982 
	C40.007214,25.355989 40.001667,25.180740 39.996117,25.005489 
	C40.123589,24.896973 40.251060,24.788454 40.581367,24.524828 
	C40.784203,24.369722 40.825500,24.402893 40.854431,24.403111 
	C41.012821,24.788666 41.142281,25.174002 41.198563,25.748436 
z"/>
<path fill="#43122E" opacity="1.000000" stroke="none" 
	d="
M41.590805,23.083092 
	C41.739250,23.263617 41.630775,23.469194 41.208843,23.613590 
	C41.155773,23.456659 41.301941,23.308573 41.590805,23.083092 
z"/>
<path fill="#3E23B0" opacity="1.000000" stroke="none" 
	d="
M24.875328,18.778439 
	C25.197803,18.294353 25.356083,18.157135 25.743969,18.234455 
	C26.223686,19.412428 26.473797,20.375862 26.731764,22.047108 
	C26.751179,22.972466 26.762737,23.190014 26.584282,23.653263 
	C25.336216,23.900511 24.278168,23.902056 23.226490,23.583530 
	C23.201839,23.052305 23.170818,22.841150 23.177204,22.633667 
	C23.214615,22.637341 23.265873,22.582348 23.589825,22.442223 
	C24.094286,21.484383 24.274797,20.666668 24.455311,19.848951 
	C24.540585,19.607737 24.625858,19.366522 24.875328,18.778439 
z"/>
<path fill="#F26DC1" opacity="1.000000" stroke="none" 
	d="
M29.926144,17.921730 
	C30.458508,17.791660 30.762283,17.795399 31.284904,17.767887 
	C31.594021,18.101215 31.531008,18.410170 30.919796,18.846771 
	C30.525173,19.005802 30.081663,18.979574 29.821095,18.970608 
	C29.386805,18.955942 29.213083,18.950239 29.039364,18.944538 
	C29.258665,18.656284 29.477964,18.368031 29.926144,17.921730 
z"/>
<path fill="#9A2DCD" opacity="1.000000" stroke="none" 
	d="
M26.774298,23.407562 
	C26.762737,23.190014 26.751179,22.972466 26.766216,22.429617 
	C27.453068,22.119164 28.113319,22.134012 29.107515,22.277592 
	C29.441458,22.406324 29.089844,22.369743 29.051640,22.775970 
	C28.975056,23.450249 28.936676,23.718300 28.799389,24.035610 
	C28.700481,24.084867 28.479551,24.089867 28.241756,23.867374 
	C27.594072,23.565777 27.184185,23.486670 26.774298,23.407562 
z"/>
<path fill="#F791DF" opacity="1.000000" stroke="none" 
	d="
M29.058491,19.172523 
	C29.213083,18.950239 29.386805,18.955942 29.769966,19.197529 
	C29.979408,19.433414 29.925039,19.894571 29.925039,19.894571 
	C29.925039,19.894571 29.908298,19.939445 29.713306,19.907484 
	C29.518316,19.875523 29.164837,19.849688 29.164837,19.849688 
	C29.164837,19.849688 29.077618,19.400507 29.058491,19.172523 
z"/>
<path fill="#F86CD7" opacity="1.000000" stroke="none" 
	d="
M29.220678,20.031094 
	C29.164837,19.849688 29.518316,19.875523 29.693710,19.893721 
	C29.869106,19.911919 29.894121,20.294230 29.872795,20.482592 
	C29.598196,20.595497 29.406546,20.442680 29.220678,20.031094 
z"/>
<path fill="#F86CD7" opacity="1.000000" stroke="none" 
	d="
M29.089844,22.369743 
	C29.089844,22.369743 29.441458,22.406324 29.600063,22.322233 
	C29.758667,22.238142 29.821327,22.209961 29.848726,22.185932 
	C29.876125,22.161905 29.934813,22.117649 29.859152,22.183270 
	C29.783491,22.248890 29.952919,22.440172 29.741796,22.365330 
	C29.530674,22.290487 29.089844,22.369743 29.089844,22.369743 
z"/>
<path fill="#9A2DCD" opacity="1.000000" stroke="none" 
	d="
M29.952919,22.440172 
	C29.952919,22.440172 29.783491,22.248890 29.859978,22.146526 
	C30.219563,22.111427 30.502665,22.178692 31.167973,22.344675 
	C31.550179,22.443394 31.556114,22.366707 31.556114,22.366707 
	C31.409739,22.532425 31.263365,22.698143 30.760366,23.246338 
	C30.403744,23.628815 30.046556,23.936949 30.030560,23.934834 
	C30.014565,23.932718 29.985033,23.947161 30.030092,23.569283 
	C30.034409,22.940994 29.993664,22.690582 29.952919,22.440172 
z"/>
<path fill="#F86CD7" opacity="1.000000" stroke="none" 
	d="
M30.132355,19.793953 
	C29.925039,19.894571 29.979408,19.433414 30.030537,19.206493 
	C30.081663,18.979574 30.525173,19.005802 30.746653,19.017050 
	C30.804379,19.293194 30.594893,19.514872 30.132355,19.793953 
z"/>
<path fill="#F86CD7" opacity="1.000000" stroke="none" 
	d="
M31.630753,22.247181 
	C31.556114,22.366707 31.550179,22.443394 31.593079,22.443649 
	C31.635981,22.443907 31.803568,22.460371 31.866610,22.403492 
	C31.929651,22.346613 31.998774,22.300150 31.996243,22.276628 
	C31.993713,22.253107 31.974264,22.212122 31.974264,22.212122 
	C31.974264,22.212122 31.705391,22.127657 31.630753,22.247181 
z"/>
<path fill="#ED4CE2" opacity="1.000000" stroke="none" 
	d="
M32.109844,22.221886 
	C31.974264,22.212122 31.993713,22.253107 32.002529,22.235462 
	C32.041557,22.407724 32.125782,22.568769 32.294495,22.731853 
	C32.418785,22.772366 32.512592,22.781975 32.606400,22.791584 
	C32.486073,22.604939 32.365749,22.418293 32.109844,22.221886 
z"/>
<path fill="#6578F6" opacity="1.000000" stroke="none" 
	d="
M24.219563,19.864796 
	C24.274797,20.666668 24.094286,21.484383 23.461245,22.085766 
	C22.910162,21.638617 22.811609,21.407801 22.713058,21.176987 
	C22.762581,20.980057 22.812103,20.783127 22.952999,20.295521 
	C23.355930,19.951422 23.669077,19.910021 24.219563,19.864796 
z"/>
<path fill="#224AEA" opacity="1.000000" stroke="none" 
	d="
M22.434374,21.191799 
	C22.811609,21.407801 22.910162,21.638617 23.137295,22.225891 
	C23.265873,22.582348 23.214615,22.637341 22.867168,22.771357 
	C21.969843,23.287672 21.419960,23.669970 20.757935,23.804539 
	C20.447037,23.052174 20.248283,22.547539 20.049530,22.042904 
	C20.751583,21.764141 21.453636,21.485376 22.434374,21.191799 
z"/>
<path fill="#1D5EF6" opacity="1.000000" stroke="none" 
	d="
M19.737722,22.107922 
	C20.248283,22.547539 20.447037,23.052174 20.496536,23.839903 
	C19.867922,24.332348 19.388565,24.541697 18.695690,24.789207 
	C18.482172,24.827370 18.049877,24.791246 18.029968,24.595909 
	C18.010061,24.400574 17.936119,24.014902 17.936119,24.014902 
	C18.432716,23.400913 18.929316,22.786926 19.737722,22.107922 
z"/>
<path fill="#1D5EF6" opacity="1.000000" stroke="none" 
	d="
M16.095289,22.891970 
	C16.342783,23.111280 16.590279,23.330593 16.909603,23.927200 
	C16.981432,24.304493 16.913813,24.605507 16.650362,24.827290 
	C16.078123,25.383682 15.769336,25.718296 15.478341,26.028496 
	C15.496134,26.004086 15.522707,26.058342 15.343315,25.780882 
	C15.079677,25.299988 14.995431,25.096554 14.948768,24.708363 
	C15.097475,24.165056 15.208600,23.806501 15.514816,23.310627 
	C15.709908,23.173307 16.095289,22.891970 16.095289,22.891970 
z"/>
<path fill="#4A87E7" opacity="1.000000" stroke="none" 
	d="
M16.913813,24.605507 
	C16.913813,24.605507 16.981432,24.304493 17.015829,24.153687 
	C17.050226,24.002880 17.496061,24.005722 17.716091,24.010311 
	C17.936119,24.014902 18.010061,24.400574 18.015789,24.943605 
	C18.023409,25.946835 18.025305,26.407030 17.764904,26.894043 
	C17.327145,26.910337 17.151684,26.899820 16.983473,26.509741 
	C16.965088,25.621956 16.939451,25.113731 16.913813,24.605507 
z"/>
<path fill="#1D5EF6" opacity="1.000000" stroke="none" 
	d="
M14.691513,22.539316 
	C14.691513,22.539316 14.581005,22.492847 14.572626,22.439331 
	C14.923493,22.447922 15.282741,22.510029 15.868638,22.732052 
	C16.095289,22.891970 15.709908,23.173307 15.336298,23.098495 
	C14.872296,22.862225 14.781904,22.700769 14.691513,22.539316 
z"/>
<path fill="#DF1669" opacity="1.000000" stroke="none" 
	d="
M31.543213,33.183861 
	C31.263245,33.777889 30.983276,34.371922 30.452396,35.397938 
	C30.201483,35.829926 29.880180,35.875580 29.643909,35.398113 
	C29.139463,34.455833 28.871292,33.991020 28.621517,33.534012 
	C28.639912,33.541813 28.638481,33.581299 28.527758,33.280098 
	C27.966307,32.529579 27.515579,32.080257 27.048689,31.527916 
	C27.032524,31.424892 27.161518,31.261000 27.461002,31.174126 
	C28.502077,30.715666 29.243670,30.344082 29.985264,29.972496 
	C30.297178,30.584406 30.609095,31.196316 31.176817,32.273533 
	C31.432623,32.738838 31.543213,33.183861 31.543213,33.183861 
z"/>
<path fill="#E013A0" opacity="1.000000" stroke="none" 
	d="
M30.011749,29.797146 
	C29.243670,30.344082 28.502077,30.715666 27.385481,30.745762 
	C26.862503,29.850927 26.714531,29.297583 26.794027,28.569071 
	C27.181961,28.288000 27.342426,28.182096 27.677923,28.168537 
	C28.357393,27.965475 28.861835,27.670069 29.425484,27.370514 
	C29.484694,27.366367 29.609667,27.386400 29.631086,27.707642 
	C29.776987,28.441696 29.901468,28.854511 30.025949,29.267324 
	C30.025949,29.267324 30.038237,29.621794 30.011749,29.797146 
z"/>
<path fill="#BA0D68" opacity="1.000000" stroke="none" 
	d="
M30.293987,29.051903 
	C29.901468,28.854511 29.776987,28.441696 29.674513,27.255997 
	C29.684856,26.182989 29.673195,25.882868 29.659391,25.507858 
	C29.657251,25.432974 29.732332,25.303310 30.027296,25.384808 
	C30.525946,25.477760 30.729633,25.489216 30.933323,25.500671 
	C30.933323,25.500671 30.876553,25.622023 30.945885,26.176102 
	C31.098669,27.060373 31.182119,27.390566 31.244923,27.705740 
	C31.224274,27.690720 31.269474,27.675285 31.269474,27.675285 
	C31.033659,28.062351 30.797844,28.449417 30.293987,29.051903 
z"/>
<path fill="#C24948" opacity="1.000000" stroke="none" 
	d="
M31.265572,27.720760 
	C31.182119,27.390566 31.098669,27.060373 30.999912,26.215702 
	C31.591547,26.012053 32.198490,26.322880 33.059479,26.868065 
	C32.890736,27.285685 32.467953,27.468950 31.698883,27.684196 
	C31.352602,27.716179 31.265572,27.720760 31.265572,27.720760 
z"/>
<path fill="#C20AA4" opacity="1.000000" stroke="none" 
	d="
M31.244923,27.705740 
	C31.265572,27.720760 31.352602,27.716179 31.354473,27.705105 
	C31.356342,27.694029 31.318174,27.667274 31.293823,27.671280 
	C31.269474,27.675285 31.224274,27.690720 31.244923,27.705740 
z"/>
<path fill="#E26421" opacity="1.000000" stroke="none" 
	d="
M31.554312,33.170845 
	C31.543213,33.183861 31.432623,32.738838 31.423405,32.514542 
	C31.457811,32.479561 31.504734,32.668060 31.576122,33.005966 
	C31.597286,33.156197 31.565411,33.157829 31.554312,33.170845 
z"/>
<path fill="#D2704A" opacity="1.000000" stroke="none" 
	d="
M39.776764,25.086212 
	C40.001667,25.180740 40.007214,25.355989 39.945293,25.785961 
	C39.877827,26.040686 39.425232,25.974632 39.201946,25.920286 
	C39.072472,25.550934 39.265388,25.317934 39.776764,25.086212 
z"/>
<path fill="#4029F7" opacity="1.000000" stroke="none" 
	d="
M18.958357,31.952129 
	C18.958357,31.952129 18.987822,31.481846 19.325802,31.243515 
	C20.097687,31.000856 20.531590,30.996527 21.208141,31.196810 
	C22.249319,31.619932 23.047850,31.838446 23.863689,32.435127 
	C23.939671,33.567719 23.998339,34.322140 24.057007,35.076565 
	C24.057007,35.076565 24.093796,35.554295 23.767414,35.751549 
	C22.816658,35.978996 22.192284,36.009182 21.567909,36.039368 
	C21.567909,36.039368 21.278038,35.969318 21.131130,35.995499 
	C20.780581,35.756203 20.543972,35.524364 20.109364,34.822872 
	C19.641569,33.550018 19.338812,32.780460 19.015619,31.997604 
	C18.995184,31.984312 18.958357,31.952129 18.958357,31.952129 
z"/>
<path fill="#2D50D3" opacity="1.000000" stroke="none" 
	d="
M17.125761,33.967106 
	C16.974194,33.374050 16.961557,32.983044 16.979023,32.299850 
	C17.443110,32.003689 17.877094,31.999710 18.634720,31.973928 
	C18.958357,31.952129 18.995184,31.984312 18.913101,32.322903 
	C18.459410,33.227859 18.087805,33.794224 17.716198,34.360584 
	C17.716196,34.360584 17.264692,34.169151 17.125761,33.967106 
z"/>
<path fill="#2E2BE4" opacity="1.000000" stroke="none" 
	d="
M17.945679,34.549309 
	C18.087805,33.794224 18.459410,33.227859 18.933537,32.336197 
	C19.338812,32.780460 19.641569,33.550018 19.938583,34.641655 
	C19.346945,34.888496 18.761051,34.813267 17.945679,34.549309 
z"/>
<path fill="#3138FA" opacity="1.000000" stroke="none" 
	d="
M20.965494,30.992199 
	C20.531590,30.996527 20.097687,31.000856 19.339733,31.008324 
	C18.846870,31.005575 18.678059,30.999685 18.264603,30.746716 
	C18.019957,30.499632 18.027439,30.027725 18.027439,30.027725 
	C18.027079,29.855534 18.026716,29.683342 18.042534,29.038876 
	C18.058712,28.566603 18.092577,28.139324 18.412443,28.130264 
	C19.157843,28.090719 19.583378,28.060234 20.211546,28.181522 
	C20.622742,28.599691 20.831303,28.866089 21.032936,29.442802 
	C21.005835,30.166147 20.985664,30.579172 20.965494,30.992199 
z"/>
<path fill="#122CCA" opacity="1.000000" stroke="none" 
	d="
M20.008911,28.029749 
	C19.583378,28.060234 19.157843,28.090719 18.143192,28.082050 
	C17.373264,28.026497 17.192455,28.010101 17.011646,27.993706 
	C16.282011,27.977039 15.552376,27.960371 14.458723,27.960249 
	C13.808842,27.724909 13.522978,27.473024 12.974251,27.094868 
	C12.711389,26.968594 12.829459,26.742418 13.325482,26.560337 
	C14.388573,26.271616 14.955640,26.164978 15.522707,26.058342 
	C15.522707,26.058342 15.496134,26.004086 15.632203,26.304052 
	C16.170921,26.699114 16.573572,26.794207 16.976221,26.889301 
	C17.151684,26.899820 17.327145,26.910337 18.017366,26.886341 
	C18.685616,26.782566 18.839104,26.713306 19.255388,26.690285 
	C19.678507,26.813606 19.838827,26.890690 19.999775,27.233328 
	C20.003241,27.675838 20.006075,27.852795 20.008911,28.029749 
z"/>
<path fill="#2F5EF8" opacity="1.000000" stroke="none" 
	d="
M17.712591,30.031010 
	C18.027439,30.027725 18.019957,30.499632 18.011499,30.735111 
	C17.302996,30.975611 16.602951,30.980629 15.558466,30.946482 
	C15.941933,30.616310 16.669838,30.325302 17.712591,30.031010 
z"/>
<path fill="#1D38EA" opacity="1.000000" stroke="none" 
	d="
M17.153690,28.188244 
	C17.192455,28.010101 17.373264,28.026497 17.823326,28.091110 
	C18.092577,28.139324 18.058712,28.566603 18.047825,28.780642 
	C17.755335,28.832542 17.508266,28.628576 17.153690,28.188244 
z"/>
<path fill="#7BDEF4" opacity="1.000000" stroke="none" 
	d="
M14.488484,22.703732 
	C14.781904,22.700769 14.872296,22.862225 15.141208,23.235815 
	C15.208600,23.806501 15.097475,24.165056 14.717142,24.588781 
	C14.244652,24.371511 14.041370,24.089069 13.838089,23.806627 
	C13.987211,23.493801 14.136333,23.180973 14.488484,22.703732 
z"/>
<path fill="#519CEF" opacity="1.000000" stroke="none" 
	d="
M13.303785,23.872478 
	C14.041370,24.089069 14.244652,24.371511 14.679560,24.773537 
	C14.995431,25.096554 15.079677,25.299988 15.343315,25.780882 
	C14.955640,26.164978 14.388573,26.271616 13.391641,26.451263 
	C12.897677,25.662291 12.833580,24.800310 13.303785,23.872478 
z"/>
<path fill="#13093F" opacity="1.000000" stroke="none" 
	d="
M21.849316,36.049210 
	C22.192284,36.009182 22.816658,35.978996 23.691526,35.978786 
	C23.942020,36.008766 23.950779,36.100574 23.932673,36.144253 
	C23.319950,36.144970 22.725336,36.102009 21.849316,36.049210 
z"/>
<path fill="#390A81" opacity="1.000000" stroke="none" 
	d="
M26.566559,28.744240 
	C26.714531,29.297583 26.862503,29.850927 27.085999,30.832634 
	C27.161518,31.261000 27.032524,31.424892 26.901104,31.923378 
	C26.675900,32.966942 26.582117,33.512020 26.488335,34.057098 
	C26.488335,34.057098 26.109077,34.251881 26.109077,34.251881 
	C26.109077,34.251881 25.682789,34.244644 25.395309,33.793594 
	C24.961050,32.286396 24.814266,31.230249 24.754711,29.876991 
	C24.869556,29.375525 24.897175,29.171167 25.192276,28.892029 
	C25.828691,28.792913 26.197624,28.768578 26.566559,28.744240 
z"/>
<path fill="#E013A0" opacity="1.000000" stroke="none" 
	d="
M26.611134,34.331848 
	C26.582117,33.512020 26.675900,32.966942 26.917267,32.026402 
	C27.515579,32.080257 27.966307,32.529579 28.536514,33.262482 
	C28.655994,33.546070 28.603121,33.526207 28.603121,33.526207 
	C28.871292,33.991020 29.139463,34.455833 29.506721,35.311455 
	C28.648514,35.337040 27.691223,34.971817 26.611134,34.331848 
z"/>
<path fill="#7418F8" opacity="1.000000" stroke="none" 
	d="
M24.667482,30.174101 
	C24.814266,31.230249 24.961050,32.286396 25.190771,33.734337 
	C25.053514,34.422699 24.833321,34.719265 24.335068,35.046200 
	C23.998339,34.322140 23.939671,33.567719 23.945206,32.187195 
	C24.228769,31.098764 24.448126,30.636433 24.667482,30.174101 
z"/>
<path fill="#C24948" opacity="1.000000" stroke="none" 
	d="
M30.921848,24.992767 
	C30.729633,25.489216 30.525946,25.477760 30.089684,25.039194 
	C29.920258,24.387037 29.983406,24.161993 30.046556,23.936949 
	C30.046556,23.936949 30.403744,23.628815 30.626396,23.549734 
	C30.869488,23.808723 30.889931,24.146795 30.921848,24.992767 
z"/>
<path fill="#719AE3" opacity="1.000000" stroke="none" 
	d="
M26.584282,23.653263 
	C27.184185,23.486670 27.594072,23.565777 28.172665,24.213152 
	C28.356249,25.015852 28.371130,25.250284 28.343086,25.561081 
	C28.300163,25.637445 28.364513,25.800404 28.275314,26.071493 
	C28.171139,26.532251 28.156162,26.721918 27.887115,26.974865 
	C27.461134,27.068407 27.289225,27.098673 26.694656,27.075262 
	C24.855070,27.064413 23.438137,27.107241 21.784636,27.061043 
	C21.392464,26.908001 21.236862,26.843983 21.255878,26.534828 
	C22.027037,25.494329 22.623577,24.698963 23.220118,23.903599 
	C24.278168,23.902056 25.336216,23.900511 26.584282,23.653263 
z"/>
<path fill="#5293F0" opacity="1.000000" stroke="none" 
	d="
M23.226490,23.583530 
	C22.623577,24.698963 22.027037,25.494329 20.985886,26.587002 
	C20.360565,26.912130 20.179855,26.939951 19.999147,26.967772 
	C19.838827,26.890690 19.678507,26.813606 19.249386,26.375477 
	C18.956795,25.593304 18.933001,25.172174 18.909208,24.751045 
	C19.388565,24.541697 19.867922,24.332348 20.608681,24.087633 
	C21.419960,23.669970 21.969843,23.287672 22.829760,22.767683 
	C23.170818,22.841150 23.201839,23.052305 23.226490,23.583530 
z"/>
<path fill="#C20AA4" opacity="1.000000" stroke="none" 
	d="
M28.386009,25.484715 
	C28.371130,25.250284 28.356249,25.015852 28.410461,24.435642 
	C28.479551,24.089867 28.700481,24.084867 29.072678,24.063263 
	C29.624928,24.010157 29.804981,23.978659 29.985033,23.947161 
	C29.985033,23.947161 30.014565,23.932718 30.030560,23.934834 
	C29.983406,24.161993 29.920258,24.387037 29.794720,24.957695 
	C29.732332,25.303310 29.657251,25.432974 29.373516,25.488506 
	C28.897860,25.545486 28.705938,25.546936 28.514908,25.514347 
	C28.515797,25.480309 28.386009,25.484715 28.386009,25.484715 
z"/>
<path fill="#A50E89" opacity="1.000000" stroke="none" 
	d="
M30.030092,23.569283 
	C29.804981,23.978659 29.624928,24.010157 29.171585,24.014004 
	C28.936676,23.718300 28.975056,23.450249 29.051640,22.775970 
	C29.089844,22.369743 29.530674,22.290487 29.741796,22.365330 
	C29.993664,22.690582 30.034409,22.940994 30.030092,23.569283 
z"/>
<path fill="#519CEF" opacity="1.000000" stroke="none" 
	d="
M18.695690,24.789207 
	C18.933001,25.172174 18.956795,25.593304 18.986591,26.329239 
	C18.839104,26.713306 18.685616,26.782566 18.279663,26.859528 
	C18.025305,26.407030 18.023409,25.946835 18.035696,25.138943 
	C18.049877,24.791246 18.482172,24.827370 18.695690,24.789207 
z"/>
<path fill="#519CEF" opacity="1.000000" stroke="none" 
	d="
M16.983473,26.509741 
	C16.573572,26.794207 16.170921,26.699114 15.614410,26.328465 
	C15.769336,25.718296 16.078123,25.383682 16.650362,24.827290 
	C16.939451,25.113731 16.965088,25.621956 16.983473,26.509741 
z"/>
<path fill="#C57229" opacity="1.000000" stroke="none" 
	d="
M28.621517,33.534012 
	C28.603121,33.526207 28.655994,33.546070 28.647238,33.563683 
	C28.638481,33.581299 28.639912,33.541813 28.621517,33.534012 
z"/>
<path fill="#2A1CCC" opacity="1.000000" stroke="none" 
	d="
M22.021206,27.150068 
	C23.438137,27.107241 24.855070,27.064413 26.776003,27.318119 
	C27.354301,27.768499 27.428596,27.922346 27.502893,28.076193 
	C27.342426,28.182096 27.181961,28.288000 26.794027,28.569071 
	C26.197624,28.768578 25.828691,28.792913 24.824062,28.864723 
	C23.449787,28.910183 22.711203,28.908169 21.978649,28.613781 
	C21.996853,27.930962 22.009029,27.540514 22.021206,27.150068 
z"/>
<path fill="#BA0D68" opacity="1.000000" stroke="none" 
	d="
M27.677923,28.168537 
	C27.428596,27.922346 27.354301,27.768499 27.198658,27.371796 
	C27.289225,27.098673 27.461134,27.068407 28.030521,26.990696 
	C28.427999,26.943249 28.715418,26.899790 28.876038,27.021379 
	C29.036657,27.142969 29.366276,27.374662 29.366276,27.374662 
	C28.861835,27.670069 28.357393,27.965475 27.677923,28.168537 
z"/>
<path fill="#A50E89" opacity="1.000000" stroke="none" 
	d="
M28.514017,25.548384 
	C28.705938,25.546936 28.897860,25.545486 29.375656,25.563393 
	C29.673195,25.882868 29.684856,26.182989 29.653093,26.934757 
	C29.609667,27.386400 29.484694,27.366367 29.425484,27.370514 
	C29.366276,27.374662 29.036657,27.142969 28.836826,26.753469 
	C28.592422,26.188372 28.547848,26.012774 28.468019,25.763565 
	C28.432764,25.689957 28.514017,25.548384 28.514017,25.548384 
z"/>
<path fill="#4B23F1" opacity="1.000000" stroke="none" 
	d="
M21.972620,28.906153 
	C22.711203,28.908169 23.449787,28.910183 24.556583,28.939503 
	C24.897175,29.171167 24.869556,29.375525 24.754711,29.876991 
	C24.448126,30.636433 24.228769,31.098764 23.927895,31.809029 
	C23.047850,31.838446 22.249319,31.619932 21.208141,31.196810 
	C20.985664,30.579172 21.005835,30.166147 21.268209,29.395504 
	C21.510412,29.037886 21.972620,28.906153 21.972620,28.906153 
z"/>
<path fill="#1A1EBE" opacity="1.000000" stroke="none" 
	d="
M21.978649,28.613781 
	C21.972620,28.906153 21.510412,29.037886 21.275139,29.085186 
	C20.831303,28.866089 20.622742,28.599691 20.211546,28.181522 
	C20.006075,27.852795 20.003241,27.675838 19.999775,27.233328 
	C20.179855,26.939951 20.360565,26.912130 20.811268,26.832138 
	C21.236862,26.843983 21.392464,26.908001 21.784636,27.061043 
	C22.009029,27.540514 21.996853,27.930962 21.978649,28.613781 
z"/>
<path fill="#DE1297" opacity="1.000000" stroke="none" 
	d="
M28.343086,25.561081 
	C28.386009,25.484715 28.515797,25.480309 28.514908,25.514347 
	C28.514017,25.548384 28.432764,25.689957 28.437550,25.743229 
	C28.442335,25.796499 28.364513,25.800404 28.364513,25.800404 
	C28.364513,25.800404 28.300163,25.637445 28.343086,25.561081 
z"/>
<path fill="#C20AA4" opacity="1.000000" stroke="none" 
	d="
M28.275314,26.071493 
	C28.364513,25.800404 28.442335,25.796499 28.472805,25.816837 
	C28.547848,26.012774 28.592422,26.188372 28.676207,26.631880 
	C28.715418,26.899790 28.427999,26.943249 28.284592,26.927418 
	C28.156162,26.721918 28.171139,26.532251 28.275314,26.071493 
z"/>
</svg>